{"title":"The Lorax 1080p BluRay 5.1 Hindi By Ashish7(wall.e)","uid":7482276,"size":3224256286,"categoryP":"video","categoryS":"hd___movies","magnet":"?xt=urn:btih:8aebccc135e2504cff4562bee4afb45e6aa4957e&amp;dn=The+Lorax+1080p+BluRay+5.1+Hindi+By+Ashish7%28wall.e%29&amp;tr=udp%3A%2F%2Ftracker.openbittorrent.com%3A80&amp;tr=udp%3A%2F%2Fopen.demonii.com%3A1337&amp;tr=udp%3A%2F%2Ftracker.coppersurfer.tk%3A6969&amp;tr=udp%3A%2F%2Fexodus.desync.com%3A6969","seeders":0,"leechers":1,"uploader":"wall.e","files":11,"time":1343472007,"description":"COVER\nwww1.picturepush.com/photo/a/8838054/1024/Ashish-rawat/Cover.jpg\n\n\nSCREENSHOTS\n\nwww5.picturepush.com/photo/a/8838118/img/Ashish-rawat/1.png\nwww1.picturepush.com/photo/a/8838119/img/Ashish-rawat/2.png\nwww5.picturepush.com/photo/a/8838123/img/Ashish-rawat/3.png\nwww5.picturepush.com/photo/a/8838128/img/Ashish-rawat/4.png\nwww4.picturepush.com/photo/a/8838132/img/Ashish-rawat/5.png\nwww3.picturepush.com/photo/a/8838136/img/Ashish-rawat/6.png\nwww1.picturepush.com/photo/a/8838139/img/Ashish-rawat/7.png\n\n\nINFO\n\nFormat                           : Matroska\nFile size                        : 2.96 GiB\nDuration                         : 1h 22mn\nOverall bit rate                 : 5123 Kbps\nMovie name                       : The Lorax 2012\n\nVideo\nID                               : 1\nFormat                           : AVC\nFormat/Info                      : Advanced Video Codec\nDuration                         : 1h 22mn\nBit rate                         : 4637 Kbps\nWidth                            : 1920 pixels\nHeight                           : 1080 pixels\nDisplay aspect ratio             : 16:9\nFrame rate                       : 25.000 fps\nColor space                      : YUV\nChroma subsampling               : 4:2:0\nStream size                      : 2.68 GiB (91%)\nTitle                            : 1080p BluRay By Ashish7(wall.e)\n\nAudio\nID                               : 2\nFormat                           : AC-3\nCodec ID                         : A_AC3\nBit rate mode                    : Constant\nBit rate                         : 384 Kbps\nChannel(s)                       : 6 channels\nChannel positions                : Front: L C R, Side: L R, LFE\nSampling rate                    : 48.0 KHz\nBit depth                        : 16 bits\nStream size                      : 227 MiB (7%)\nTitle                            : 5.1 Hindi Audio By Ashish7(wall.e)\nLanguage                         : Hindi\n\nComments are appreciated:)","torrent":{"xt":"urn:btih:8aebccc135e2504cff4562bee4afb45e6aa4957e","amp;dn":"The+Lorax+1080p+BluRay+5.1+Hindi+By+Ashish7%28wall.e%29","amp;tr":["udp%3A%2F%2Ftracker.openbittorrent.com%3A80","udp%3A%2F%2Fopen.demonii.com%3A1337","udp%3A%2F%2Ftracker.coppersurfer.tk%3A6969","udp%3A%2F%2Fexodus.desync.com%3A6969"],"infoHash":"8aebccc135e2504cff4562bee4afb45e6aa4957e","infoHashBuffer":{"type":"Buffer","data":[138,235,204,193,53,226,80,76,255,69,98,190,228,175,180,94,106,164,149,126]},"announce":[],"urlList":[]}}